<?xml version="1.0" ?><svg style="enable-background:new 0 0 512 512;" version="1.1" viewBox="0 0 512 512" xml:space="preserve" xmlns="http://www.w3.org/2000/svg" xmlns:xlink="http://www.w3.org/1999/xlink"><style type="text/css">
	.st0{fill:#1E1E1E;}
	.st1{fill:#464646;stroke:#21759B;stroke-width:2;stroke-miterlimit:10;}
	.st2{fill:#FFFFFF;}
</style><g id="Edges"/><g id="Background_Bottom"><g><path class="st0" d="M492.3,443.1c0,34.2-27.7,61.9-61.9,61.9H80.7c-34.2,0-61.9-27.7-61.9-61.9V93.4c0-34.2,27.7-61.9,61.9-61.9    h349.7c34.2,0,61.9,27.7,61.9,61.9V443.1z"/></g></g><g id="Background"><path class="st1" d="M492.3,418.4c0,34.2-27.7,61.9-61.9,61.9H80.7c-34.2,0-61.9-27.7-61.9-61.9V68.6c0-34.2,27.7-61.9,61.9-61.9   h349.7c34.2,0,61.9,27.7,61.9,61.9V418.4z"/></g><g id="Symbol"><path class="st2" d="M405,255.7c0-22.7,0-46.8-5.1-69c-1.9-8.4-6.3-15.7-12.3-21.1l0,0c-6-5.5-13.6-9-21.9-10   c-18.1-2-36.4-3-54.7-3.6c-18.2-0.5-36.5-0.5-54.7-0.5c-18.2,0-36.5,0-54.7,0.5c-18.3,0.5-36.6,1.5-54.7,3.6   c-8.3,0.9-15.9,4.5-21.9,10c-6,5.4-10.4,12.7-12.3,21.1c-2.6,11.2-3.9,22.9-4.6,34.7c-0.7,11.8-0.7,23.5-0.7,34.9   c0,11.3,0,23,0.6,34.8c0.6,11.8,1.9,23.5,4.5,34.7c1.9,8.4,6.3,15.7,12.3,21.1c6,5.5,13.6,9,21.9,10c18.1,2,36.4,3,54.7,3.6   c18.2,0.5,36.5,0.5,54.7,0.5c18.2,0,36.5,0,54.7-0.5c18.3-0.5,36.6-1.5,54.7-3.6c8.3-0.9,15.9-4.5,21.9-10   c6-5.4,10.4-12.7,12.3-21.1c2.6-11.2,3.9-22.9,4.5-34.7c0.6-11.6,0.6-23.4,0.6-34.8h0L405,255.7L405,255.7z M215.5,306.7V199.9   L318,253.5L215.5,306.7z"/></g></svg>