<?xml version="1.0" standalone="no"?>
<!DOCTYPE svg PUBLIC "-//W3C//DTD SVG 20010904//EN"
 "http://www.w3.org/TR/2001/REC-SVG-20010904/DTD/svg10.dtd">
<svg version="1.0" xmlns="http://www.w3.org/2000/svg"
 width="512.000000pt" height="512.000000pt" viewBox="0 0 512.000000 512.000000"
 preserveAspectRatio="xMidYMid meet">

<g transform="translate(0.000000,512.000000) scale(0.100000,-0.100000)"
fill="#000000" stroke="none">
<path d="M412 5100 c-97 -26 -173 -70 -248 -144 -75 -76 -119 -151 -144 -252
-20 -76 -20 -115 -20 -2144 0 -2029 0 -2068 20 -2144 25 -101 69 -176 144
-252 76 -75 151 -119 252 -144 76 -20 115 -20 2144 -20 2029 0 2068 0 2144 20
101 25 176 69 252 144 75 76 119 151 144 252 20 76 20 115 20 2144 0 2029 0
2068 -20 2144 -26 103 -69 177 -149 256 -79 77 -142 114 -247 140 -76 20 -117
20 -2148 19 -2010 0 -2073 -1 -2144 -19z m2862 -795 c37 -409 377 -750 780
-783 l81 -7 3 -314 2 -314 -92 6 c-254 17 -501 98 -710 233 l-68 44 0 -673 c0
-739 -3 -789 -60 -957 -249 -745 -1150 -1030 -1775 -563 -634 474 -614 1431
40 1873 220 149 517 225 749 194 l46 -7 0 -317 0 -318 -37 9 c-61 14 -195 10
-254 -7 -346 -102 -492 -500 -293 -800 80 -120 207 -200 360 -224 204 -33 434
83 531 266 66 125 63 47 63 1456 l0 1278 314 0 313 0 7 -75z"/>
</g>
</svg>
